<mxfile host="app.diagrams.net" agent="Mozilla/5.0 (Macintosh; Intel Mac OS X 10_15_7) AppleWebKit/537.36 (KHTML, like Gecko) Chrome/133.0.0.0 Safari/537.36" version="25.0.3">
  <diagram name="Page-1" id="4A8QmTVBKhifXQMpcjai">
    <mxGraphModel dx="2417" dy="2177" grid="1" gridSize="10" guides="1" tooltips="1" connect="1" arrows="1" fold="1" page="1" pageScale="1" pageWidth="827" pageHeight="1169" math="0" shadow="0">
      <root>
        <mxCell id="0" />
        <mxCell id="1" parent="0" />
        <mxCell id="PCynzylebKLjFXbMFZ2w-32" value="" style="ellipse;whiteSpace=wrap;html=1;aspect=fixed;" vertex="1" parent="1">
          <mxGeometry x="-75" y="-25" width="930" height="930" as="geometry" />
        </mxCell>
        <mxCell id="PCynzylebKLjFXbMFZ2w-31" value="" style="ellipse;whiteSpace=wrap;html=1;aspect=fixed;" vertex="1" parent="1">
          <mxGeometry x="-30" y="20" width="840" height="840" as="geometry" />
        </mxCell>
        <mxCell id="PCynzylebKLjFXbMFZ2w-2" value="" style="ellipse;whiteSpace=wrap;html=1;aspect=fixed;" vertex="1" parent="1">
          <mxGeometry x="242.5" y="302.5" width="295" height="295" as="geometry" />
        </mxCell>
        <mxCell id="PCynzylebKLjFXbMFZ2w-1" value="Podium" style="whiteSpace=wrap;html=1;aspect=fixed;rotation=0;" vertex="1" parent="1">
          <mxGeometry x="350" y="410" width="80" height="80" as="geometry" />
        </mxCell>
        <mxCell id="PCynzylebKLjFXbMFZ2w-3" value="Clocktower" style="whiteSpace=wrap;html=1;aspect=fixed;" vertex="1" parent="1">
          <mxGeometry x="350" y="222.5" width="80" height="80" as="geometry" />
        </mxCell>
        <mxCell id="PCynzylebKLjFXbMFZ2w-4" value="" style="whiteSpace=wrap;html=1;aspect=fixed;" vertex="1" parent="1">
          <mxGeometry x="162.5" y="410" width="80" height="80" as="geometry" />
        </mxCell>
        <mxCell id="PCynzylebKLjFXbMFZ2w-5" value="" style="whiteSpace=wrap;html=1;aspect=fixed;" vertex="1" parent="1">
          <mxGeometry x="40" y="410" width="80" height="80" as="geometry" />
        </mxCell>
        <mxCell id="PCynzylebKLjFXbMFZ2w-8" value="" style="whiteSpace=wrap;html=1;aspect=fixed;rotation=-40;direction=south;" vertex="1" parent="1">
          <mxGeometry x="200" y="520" width="80" height="80" as="geometry" />
        </mxCell>
        <mxCell id="PCynzylebKLjFXbMFZ2w-11" value="" style="whiteSpace=wrap;html=1;aspect=fixed;rotation=-40;direction=south;" vertex="1" parent="1">
          <mxGeometry x="100" y="597.5" width="80" height="80" as="geometry" />
        </mxCell>
        <mxCell id="PCynzylebKLjFXbMFZ2w-12" value="" style="whiteSpace=wrap;html=1;aspect=fixed;rotation=-20;direction=south;" vertex="1" parent="1">
          <mxGeometry x="50" y="510" width="80" height="80" as="geometry" />
        </mxCell>
        <mxCell id="PCynzylebKLjFXbMFZ2w-23" value="" style="group;rotation=-180;" vertex="1" connectable="0" parent="1">
          <mxGeometry x="480.0014894355369" y="200" width="257.62179267668375" height="283.85328211222065" as="geometry" />
        </mxCell>
        <mxCell id="PCynzylebKLjFXbMFZ2w-18" value="" style="whiteSpace=wrap;html=1;aspect=fixed;rotation=-180;" vertex="1" parent="PCynzylebKLjFXbMFZ2w-23">
          <mxGeometry x="54" y="204" width="80" height="80" as="geometry" />
        </mxCell>
        <mxCell id="PCynzylebKLjFXbMFZ2w-19" value="" style="whiteSpace=wrap;html=1;aspect=fixed;rotation=-180;" vertex="1" parent="PCynzylebKLjFXbMFZ2w-23">
          <mxGeometry x="176" y="204" width="80" height="80" as="geometry" />
        </mxCell>
        <mxCell id="PCynzylebKLjFXbMFZ2w-20" value="" style="whiteSpace=wrap;html=1;aspect=fixed;rotation=-220;direction=south;" vertex="1" parent="PCynzylebKLjFXbMFZ2w-23">
          <mxGeometry x="16" y="94" width="80" height="80" as="geometry" />
        </mxCell>
        <mxCell id="PCynzylebKLjFXbMFZ2w-21" value="" style="whiteSpace=wrap;html=1;aspect=fixed;rotation=-220;direction=south;" vertex="1" parent="PCynzylebKLjFXbMFZ2w-23">
          <mxGeometry x="116" y="17" width="80" height="80" as="geometry" />
        </mxCell>
        <mxCell id="PCynzylebKLjFXbMFZ2w-22" value="" style="whiteSpace=wrap;html=1;aspect=fixed;rotation=-200;direction=south;" vertex="1" parent="PCynzylebKLjFXbMFZ2w-23">
          <mxGeometry x="166" y="104" width="80" height="80" as="geometry" />
        </mxCell>
        <mxCell id="PCynzylebKLjFXbMFZ2w-24" value="Mafia house" style="whiteSpace=wrap;html=1;aspect=fixed;rotation=-45;" vertex="1" parent="1">
          <mxGeometry x="183.75" y="240" width="112.5" height="112.5" as="geometry" />
        </mxCell>
        <mxCell id="PCynzylebKLjFXbMFZ2w-30" value="" style="whiteSpace=wrap;html=1;aspect=fixed;rotation=0;" vertex="1" parent="1">
          <mxGeometry x="270" y="597.5" width="80" height="80" as="geometry" />
        </mxCell>
        <mxCell id="PCynzylebKLjFXbMFZ2w-33" value="Town hall" style="whiteSpace=wrap;html=1;aspect=fixed;rotation=40;" vertex="1" parent="1">
          <mxGeometry x="560" y="550" width="170" height="170" as="geometry" />
        </mxCell>
        <mxCell id="PCynzylebKLjFXbMFZ2w-36" value="" style="whiteSpace=wrap;html=1;aspect=fixed;rotation=0;" vertex="1" parent="1">
          <mxGeometry x="430" y="597.5" width="80" height="80" as="geometry" />
        </mxCell>
        <mxCell id="PCynzylebKLjFXbMFZ2w-37" value="" style="whiteSpace=wrap;html=1;aspect=fixed;rotation=0;" vertex="1" parent="1">
          <mxGeometry x="430" y="710" width="80" height="80" as="geometry" />
        </mxCell>
        <mxCell id="PCynzylebKLjFXbMFZ2w-38" value="" style="whiteSpace=wrap;html=1;aspect=fixed;rotation=0;" vertex="1" parent="1">
          <mxGeometry x="270" y="710" width="80" height="80" as="geometry" />
        </mxCell>
        <mxCell id="PCynzylebKLjFXbMFZ2w-39" value="" style="rounded=0;whiteSpace=wrap;html=1;" vertex="1" parent="1">
          <mxGeometry x="240" y="830" width="320" height="80" as="geometry" />
        </mxCell>
        <mxCell id="PCynzylebKLjFXbMFZ2w-42" value="Market area" style="rounded=0;whiteSpace=wrap;html=1;" vertex="1" parent="1">
          <mxGeometry x="270" y="50" width="250" height="160" as="geometry" />
        </mxCell>
        <mxCell id="PCynzylebKLjFXbMFZ2w-43" value="" style="whiteSpace=wrap;html=1;aspect=fixed;rotation=-45;" vertex="1" parent="1">
          <mxGeometry x="40" y="200" width="80" height="80" as="geometry" />
        </mxCell>
        <mxCell id="PCynzylebKLjFXbMFZ2w-44" value="" style="whiteSpace=wrap;html=1;aspect=fixed;rotation=-45;" vertex="1" parent="1">
          <mxGeometry x="130" y="110" width="80" height="80" as="geometry" />
        </mxCell>
      </root>
    </mxGraphModel>
  </diagram>
</mxfile>
